<mxfile host="app.diagrams.net" modified="2021-04-12T10:31:11.931Z" agent="5.0 (Windows NT 10.0; Win64; x64) AppleWebKit/537.36 (KHTML, like Gecko) Chrome/88.0.4324.190 Safari/537.36" etag="jZouaKUMeKdjV7tC43Ao" version="14.5.10" type="github">
  <diagram id="VWs96mPL_qFnbKkAlytn" name="Page-1">
    <mxGraphModel dx="1422" dy="832" grid="1" gridSize="10" guides="1" tooltips="1" connect="1" arrows="1" fold="1" page="1" pageScale="1" pageWidth="827" pageHeight="1169" math="0" shadow="0">
      <root>
        <mxCell id="0" />
        <mxCell id="1" parent="0" />
        <mxCell id="ZjJAUr3FeUKmNjzEr1_K-8" value="" style="edgeStyle=orthogonalEdgeStyle;rounded=0;orthogonalLoop=1;jettySize=auto;html=1;" edge="1" parent="1" source="ZjJAUr3FeUKmNjzEr1_K-4">
          <mxGeometry relative="1" as="geometry">
            <mxPoint x="430" y="115" as="targetPoint" />
          </mxGeometry>
        </mxCell>
        <mxCell id="ZjJAUr3FeUKmNjzEr1_K-4" value="" style="html=1;whitespace=wrap;shape=mxgraph.dfd.start;strokeWidth=2;" vertex="1" parent="1">
          <mxGeometry x="390" y="30" width="80" height="30" as="geometry" />
        </mxCell>
        <mxCell id="ZjJAUr3FeUKmNjzEr1_K-9" value="" style="strokeWidth=2;html=1;shape=mxgraph.flowchart.direct_data;whiteSpace=wrap;" vertex="1" parent="1">
          <mxGeometry x="380" y="120" width="100" height="60" as="geometry" />
        </mxCell>
      </root>
    </mxGraphModel>
  </diagram>
</mxfile>
